# xmcd CD database file
#
# Track frame offsets:
#	150
#	11802
#	24095
#	36437
#	49920
#	62000
#	74140
#	88940
#	101857
#	110555
#	123857
#	139080
#	154340
#	168475
#	180795
#	193817
#	204817
#	225610
#	238855
#	252320
#
# Disc length: 3534 seconds
#
# Revision: 1
# Processed by: cddbd v1.5.1PL0 Copyright (c) Steve Scherf et al.
# Submitted via: CDex 1.50beta10
#
DISCID=1d0dcc14
DTITLE=Nat King Cole - The Nat King Cole Collection [Disc 2]
DYEAR=1996
DGENRE=Jazz
TTITLE0=Let True Love Begin
TTITLE1=Ballerina
TTITLE2=Can't I
TTITLE3=If I Give My Heart To You
TTITLE4=Autumn Leaves
TTITLE5=Walking My Baby Back Home
TTITLE6=Red Sails In The Sunset
TTITLE7=You Made Me Love You
TTITLE8=Almost Like Being In Love
TTITLE9=Make Her Mine
TTITLE10=Too Young
TTITLE11=Mona Lisa
TTITLE12=When I Fall In Love
TTITLE13=Love Letters
TTITLE14=Answer Me My Love
TTITLE15=He'll Have To Go
TTITLE16=Sweet Lorraine
TTITLE17=It's Only A Paper Moon
TTITLE18=Somewhere Along The Way
TTITLE19=Darling Je Vous Aime Beaucoup
EXTD=YEAR: 1996
EXTT0=
EXTT1=
EXTT2=
EXTT3=
EXTT4=
EXTT5=
EXTT6=
EXTT7=
EXTT8=
EXTT9=
EXTT10=
EXTT11=
EXTT12=
EXTT13=
EXTT14=
EXTT15=
EXTT16=
EXTT17=
EXTT18=
EXTT19=
PLAYORDER=
